<?xml version="1.0" encoding="utf-8"?>
<!-- Generator: Adobe Illustrator 17.0.0, SVG Export Plug-In . SVG Version: 6.00 Build 0)  -->
<!DOCTYPE svg PUBLIC "-//W3C//DTD SVG 1.1//EN" "http://www.w3.org/Graphics/SVG/1.1/DTD/svg11.dtd">
<svg version="1.1" id="Layer_1" xmlns="http://www.w3.org/2000/svg" xmlns:xlink="http://www.w3.org/1999/xlink" x="0px" y="0px"
	 width="159.42px" height="59.86px" viewBox="0 0 159.42 59.86" enable-background="new 0 0 159.42 59.86" xml:space="preserve">
<g id="Normal">
	<g>
		<path fill="#FFFFFF" d="M51.753,25.706c-0.818,0-1.458,0.629-1.458,1.433v14.965c0,0.803,0.64,1.432,1.458,1.432
			c0.803,0,1.433-0.629,1.433-1.432V27.138C53.186,26.335,52.557,25.706,51.753,25.706z"/>
		<path fill="#FFFFFF" d="M65.98,25.833h-5.065c-0.831,0-1.458,0.627-1.458,1.458v14.66c0,0.831,0.627,1.458,1.458,1.458h5.065
			c5.417,0,9.348-3.696,9.348-8.788V34.57C75.328,29.507,71.397,25.833,65.98,25.833z M72.285,34.672
			c0,3.607-2.593,6.127-6.305,6.127h-3.632V28.444h3.632c3.712,0,6.305,2.54,6.305,6.177V34.672z"/>
		<path fill="#FFFFFF" d="M93.596,33.697h-4.963c-0.706,0-1.28,0.563-1.28,1.255c0,0.677,0.574,1.229,1.28,1.229h3.632v3.515
			l-0.048,0.036c-1.172,0.872-2.766,1.373-4.373,1.373c-3.637,0-6.177-2.666-6.177-6.483V34.57c0-3.532,2.646-6.406,5.897-6.406
			c2.165,0,3.438,0.719,4.397,1.423c0.246,0.172,0.527,0.333,0.896,0.333c0.79,0,1.433-0.643,1.433-1.433
			c0-0.663-0.411-1.044-0.588-1.176c-1.738-1.249-3.536-1.783-6.011-1.783c-5.085,0-9.068,3.994-9.068,9.093v0.051
			c0,5.324,3.75,9.043,9.119,9.043c2.81,0,4.961-1.041,6.271-1.914c0.711-0.442,1.041-1.04,1.041-1.886v-4.759
			C95.054,34.324,94.427,33.697,93.596,33.697z"/>
		<path fill="#FFFFFF" d="M112.583,40.849h-9.053v-5.024h7.781c0.706,0,1.28-0.563,1.28-1.255c0-0.72-0.574-1.305-1.28-1.305h-7.781
			v-4.872h8.926c0.706,0,1.28-0.574,1.28-1.28c0-0.694-0.586-1.28-1.28-1.28h-10.359c-0.831,0-1.458,0.627-1.458,1.458v14.66
			c0,0.831,0.627,1.458,1.458,1.458h10.486c0.706,0,1.28-0.574,1.28-1.28C113.863,41.435,113.277,40.849,112.583,40.849z"/>
		<path fill="#FFFFFF" d="M130.145,25.833H118.31c-0.734,0-1.331,0.597-1.331,1.331s0.597,1.331,1.331,1.331h4.447v13.609
			c0,0.79,0.654,1.432,1.458,1.432s1.458-0.643,1.458-1.432V28.495h4.472c0.72,0,1.305-0.597,1.305-1.331
			C131.451,26.43,130.865,25.833,130.145,25.833z"/>
		<path fill="#FFFFFF" d="M137.349,25.706c-0.817,0-1.458,0.629-1.458,1.433v14.965c0,0.803,0.641,1.432,1.458,1.432
			c0.803,0,1.433-0.629,1.433-1.432V27.138C138.781,26.335,138.152,25.706,137.349,25.706z"/>
		<path fill="#FFFFFF" d="M158.066,38.991c-0.314,0-0.629,0.119-0.862,0.326c-1.463,1.233-2.775,1.735-4.533,1.735
			c-3.42,0-5.999-2.765-5.999-6.432v-0.05c0-3.592,2.635-6.406,5.999-6.406c1.583,0,2.957,0.518,4.326,1.63
			c0.245,0.184,0.538,0.279,0.866,0.279c0.803,0,1.432-0.618,1.432-1.407c0-0.648-0.394-1.021-0.564-1.152
			c-1.783-1.373-3.644-1.986-6.036-1.986c-5.169,0-9.068,3.909-9.068,9.093v0.051c0,2.458,0.905,4.736,2.549,6.416
			c1.658,1.694,3.928,2.627,6.391,2.627c2.557,0,4.526-0.729,6.385-2.362c0.174-0.158,0.468-0.504,0.468-1.03
			C159.422,39.601,158.801,38.991,158.066,38.991z"/>
	</g>
	<path id="Symbol" fill="#FFFFFF" d="M2.154,56.325c0.203,0.303,0.121,0.714-0.183,0.917c-0.113,0.075-0.24,0.111-0.367,0.111
		c-0.214,0-0.423-0.103-0.55-0.294C0.365,56.025,0,54.82,0,53.573v-3.464c0-0.365,0.296-0.661,0.661-0.661s0.661,0.296,0.661,0.661
		v3.464C1.322,54.558,1.61,55.509,2.154,56.325z M0.661,31.132c0.365,0,0.661-0.296,0.661-0.661V23.7
		c0-0.365-0.296-0.661-0.661-0.661S0,23.335,0,23.7v6.771C0,30.836,0.296,31.132,0.661,31.132z M0.661,44.337
		c0.365,0,0.661-0.296,0.661-0.661v-6.771c0-0.365-0.296-0.661-0.661-0.661S0,36.539,0,36.904v6.771
		C0,44.041,0.296,44.337,0.661,44.337z M0.661,17.928c0.365,0,0.661-0.296,0.661-0.661v-6.771c0-0.365-0.296-0.661-0.661-0.661
		S0,10.13,0,10.495v6.771C0,17.632,0.296,17.928,0.661,17.928z M6.441,0H6.283C3.739,0,1.462,1.517,0.482,3.866
		C0.342,4.203,0.501,4.59,0.838,4.73c0.083,0.035,0.169,0.051,0.254,0.051c0.259,0,0.505-0.153,0.61-0.407
		C2.476,2.52,4.274,1.322,6.283,1.322h0.158c0.365,0,0.661-0.296,0.661-0.661S6.806,0,6.441,0z M26.078,1.322h6.772
		c0.365,0,0.661-0.296,0.661-0.661S33.215,0,32.85,0h-6.772c-0.365,0-0.661,0.296-0.661,0.661S25.713,1.322,26.078,1.322z
		 M12.874,1.322h6.771c0.365,0,0.661-0.296,0.661-0.661S20.01,0,19.645,0h-6.771c-0.365,0-0.661,0.296-0.661,0.661
		S12.509,1.322,12.874,1.322z M43.861,27.032v10.79c0,0.059-0.004,0.117-0.012,0.174c-0.002,0.012-0.005,0.023-0.007,0.035
		c-0.011,0.067-0.027,0.133-0.048,0.198c-0.005,0.015-0.009,0.03-0.014,0.044c-0.027,0.073-0.06,0.143-0.099,0.21
		c-0.003,0.006-0.005,0.012-0.008,0.017l-7.42,12.4c-0.003,0.005-0.006,0.01-0.009,0.014l-4.969,8.303
		c-0.239,0.399-0.669,0.643-1.134,0.643l0,0c-0.07,0-0.138-0.007-0.206-0.018c-0.041,0.008-0.083,0.013-0.126,0.013h-6.771
		c-0.365,0-0.661-0.296-0.661-0.661c0-0.365,0.296-0.661,0.661-0.661h5.559l-4.556-7.604c0-0.001-0.001-0.001-0.001-0.002
		l-7.292-12.17c-0.247-0.246-0.391-0.58-0.391-0.935v-10.79c0-0.73,0.592-1.322,1.322-1.322s1.322,0.592,1.322,1.322v10.083
		l4.893,3.266l4.893-3.266v-7.881c0-0.73,0.592-1.322,1.322-1.322s1.322,0.592,1.322,1.322v7.881l4.893,3.266l4.893-3.266V27.032
		c0-0.73,0.592-1.322,1.322-1.322S43.861,26.302,43.861,27.032z M32.768,51.575H27.51l2.631,4.391L32.768,51.575z M38.389,42.182
		l-1.331,0.889c-0.222,0.148-0.478,0.222-0.734,0.222s-0.512-0.074-0.734-0.222l-5.481-3.659l-5.481,3.659
		c-0.444,0.297-1.024,0.297-1.468,0l-1.242-0.829l4.006,6.685l8.436-0.013L38.389,42.182z M46.054,0h-6.772
		c-0.365,0-0.661,0.296-0.661,0.661s0.296,0.661,0.661,0.661h6.772c0.365,0,0.661-0.296,0.661-0.661S46.419,0,46.054,0z
		 M15.282,58.534H8.511c-0.365,0-0.661,0.296-0.661,0.661c0,0.365,0.296,0.661,0.661,0.661h6.771c0.365,0,0.661-0.296,0.661-0.661
		S15.647,58.534,15.282,58.534z M59.195,8.905c-0.365,0-0.661,0.296-0.661,0.661v6.771c0,0.365,0.296,0.661,0.661,0.661
		s0.661-0.296,0.661-0.661V9.566C59.856,9.201,59.56,8.905,59.195,8.905z M58.897,2.945C57.738,1.101,55.748,0,53.573,0h-1.086
		c-0.365,0-0.661,0.296-0.661,0.661s0.296,0.661,0.661,0.661h1.086c1.717,0,3.289,0.869,4.204,2.326c0.126,0.2,0.341,0.31,0.56,0.31
		c0.12,0,0.242-0.033,0.351-0.102C58.998,3.662,59.091,3.254,58.897,2.945z"/>
</g>
</svg>
